<svg id="Layer_1" data-name="Layer 1" xmlns="http://www.w3.org/2000/svg" viewBox="0 0 369.56 596.5"><path d="M316.15,719.16c-17.24.33-33.93-2.41-49.8-9.31a51.59,51.59,0,0,1-10.56-5.93,8.43,8.43,0,0,1-2.88-5.91c0-2.61,2.81-3.13,5.06-3.46,6.62-1,13.27-1.82,19.88-2.85,8.14-1.28,14-5.36,17.63-13.12,3.77-8.14,7.51-16.24,8.36-25.25a153.43,153.43,0,0,0,.38-15.47c-.11-15.06-2.61-29.59-8.78-43.51-2.33-5.26-2.91-11.26-4.67-16.81s-3.57-6.2-9-3.92a52.44,52.44,0,0,0-5.62,2.79,13.51,13.51,0,0,1-12.85.3c-1.51-.7-2.75-2.64-3.45-4.29-5-11.82-4.88-23.73-.65-35.8,3.44-9.8,6.69-19.69,9.61-29.66,1-3.24.77-6.86.84-10.32.15-6.53.09-13.06.13-19.59,0-4.34.11-8.68.13-13,0-.54,0-1.34-.34-1.59-4-3.09-2.84-7.43-3.23-11.56-.35-3.82-2.11-7.5-2.84-11.32-1.12-5.86-2.87-11.84-2.57-17.68A149.63,149.63,0,0,0,259.76,396a14.93,14.93,0,0,0-2.22-6.59,15.72,15.72,0,0,1-2.79-10.26c.27-5.58.54-11.18.37-16.76a35.47,35.47,0,0,0-6-18.83c-2.77-4.16-5.05-8.65-7.9-12.74-1.52-2.17-3.5-4.72-5.81-5.51-4.73-1.63-6.67-.27-8.74,4.47-3.41,7.77-6.91,15.5-10.1,23.35-3.45,8.5-9.76,14.88-15.52,21.68-9.93,11.72-20,23.34-30,35a31.16,31.16,0,0,0-3.1,4.46c-3.55,6-8.68,9.73-15.65,10.6a19,19,0,0,0-11,5.37c-2.12,2-4.68,3.55-6.9,5.46-1.83,1.59-3.6,2.7-6,1.18-.33-.21-1-.44-1.12-.33-2.32,3.16-5.65,1.17-8.48,1.67-3.39.6-6-1.26-5.91-4.68a69.88,69.88,0,0,1,1.46-13.23,8.75,8.75,0,0,1,3.82-5.14c7.17-4.05,14.56-7.78,23-8.51a11.85,11.85,0,0,1,5.92,1c2.85,1.37,5,.78,6.55-1.59a66.69,66.69,0,0,0,5.34-9.87c2.94-6.89,5.79-13.84,8.25-20.92,4.55-13.08,12.45-24,21.73-33.94a71.87,71.87,0,0,0,11.67-17.28,78.15,78.15,0,0,1,4.93-8.68c1.71-2.55,1.89-4.86-.06-7.23q-4.24-5.18-8.58-10.29c-.63-.74-1.38-1.38-2.06-2.09-5.9-6.12-5.69-8.23,1.06-13.27,7.49-5.6,15.55-10.64,22.16-17.15a89.41,89.41,0,0,1,19.65-14.51c3.66-2,3.71-3.75,1-7s-5.21-6.21-7.73-9.39a20.94,20.94,0,0,1-4.71-14.75c.45-7.06-.91-13.82-2.56-20.62a133.27,133.27,0,0,1-4.23-28.8,12.83,12.83,0,0,0-1.07-5.68c-2.86-5.22-1-9.8,1.67-14.15,4.44-7.3,10.05-13.4,18.46-16.29,9.6-3.29,19.12-6.81,28.76-10,2.87-.94,6-1,9.06-1.41,5.32-.77,9.52,1.07,13.8,4.43a70.18,70.18,0,0,0,17.12,10.38c13,5.15,14,15.38,11.5,26.92a68.61,68.61,0,0,1-2.55,7.52c-1.73,5.07-2,10.19.13,15.15a24,24,0,0,1-.74,21.75c-5.1,9.54-1.5,17.22,6.5,23.13A85.6,85.6,0,0,0,341,242.67c6.89,2.79,13.14,7.22,19.53,11.16,1.31.81,2.1,2.57,3,4,4.63,7.61,10.79,11.67,20.17,9.82,3.21-.64,6.7-.18,10,.16,4.21.43,7.61-.48,10.28-4,9.62-12.67,19.15-25.42,29.11-37.82,3.55-4.43,8.06-8.16,12.43-11.85a184.41,184.41,0,0,1,16.2-12.51c7.72-5.19,13.18-3.47,17.79,4.59,4.44,7.77,3.81,15.12-1.38,22.15-2.24,3-4.85,5.77-7.28,8.66-1.11,1.31-1.73,1-2-.57a7.3,7.3,0,0,0-.44-1.18c-.59-1.56-1.17-3.13-1.76-4.7a22.23,22.23,0,0,0-1.9,4.47c-1.9,9.88-7.34,17.9-13.32,25.63a8.62,8.62,0,0,1-1.46,1.21,6.23,6.23,0,0,1-.83-1.45c-.41-1.61-.64-3.27-1.09-4.88a5.88,5.88,0,0,0-1.08-1.57,5.47,5.47,0,0,0-1.09,1.53,62.61,62.61,0,0,0-2.18,8.94c-.67,5.7-2.19,10.82-6.55,15-2.41,2.28-4.21,5.2-6.35,7.79a10.45,10.45,0,0,1-1.89,1.41c0-.69-.06-1.38-.07-2.07,0-3.45,0-6.9-.11-10.34,0-.45-.44-.89-.68-1.33-.4.49-1,.91-1.15,1.46-1.67,6-3.12,12.14-5,18.12a27.25,27.25,0,0,1-3.59,6.94c-2.72,4-2.89,8-.44,12.13,1.94,3.23,3.93,6.43,6.15,9.47,4.18,5.75,4.4,12.29,1,17.7-7.87,12.49-13.46,26.41-23.46,37.55-5.13,5.72-10.11,11.59-15.41,17.16-4.16,4.35-4.49,9.54-3.67,14.86a128.47,128.47,0,0,1-1.18,46.55,26.35,26.35,0,0,1-2.51,6.15,37.28,37.28,0,0,0-4.17,17.24c0,8.23-.37,16.47-.81,24.69-.17,3.15.88,4.78,4,4.89,5.72.19,11.46.07,17.14.57a40.25,40.25,0,0,1,11.67,2.43c6.88,2.85,8.3,6.27,6.38,13.51a39.47,39.47,0,0,1-3.07,8.15,55.06,55.06,0,0,0-5.95,24.45c-.3,10.69-3.25,20.62-11.29,28.33-3.86,3.7-8.12,3.36-12.31.2-7.3-5.5-9.41-13.07-9.57-21.57-.12-5.88,0-11.75,0-17.63a16.22,16.22,0,0,0-15-15.61c-3.6-.27-7.17-.9-10.76-1.37-6.91-.92-13.61.41-20.16,2.29-3.63,1-5.89,7-4.49,11.87,2.44,8.38,5.18,16.68,7.95,25a117.53,117.53,0,0,1,5.59,46.08c-.91,12.9-3.35,25.81-1.31,38.87s4,26.12,5.32,39.24a73.23,73.23,0,0,1-.75,17.48c-.64,4.64-4.68,6.9-10.92,7.12C322.87,719.26,319.51,719.16,316.15,719.16ZM282.38,473.21c.2,1.25.29,1.76.37,2.28a7.36,7.36,0,0,0,1.39-1.4q7.55-13.95,15-27.92c6.91-12.93,13.65-25.94,20.73-38.77,4.65-8.44,10.45-16.3,14.51-25,5.7-12.21,13-23.38,20.1-34.72a32.75,32.75,0,0,0,2.07-3.64,9.64,9.64,0,0,0,.46-2.32c-.72.46-1.67.76-2.11,1.4-3.5,5-7.08,10-10.3,15.24q-8.22,13.33-16.05,26.9c-9.33,16.22-18.66,32.44-27.7,48.82-4.51,8.16-8.5,16.62-12.52,25C286.08,463.88,284.22,468.84,282.38,473.21Zm16.05,46.67-.41,0c.3,4.56.57,9.13.94,13.69a9.68,9.68,0,0,0,.88,2.46c.64-.63,1.52-1.15,1.88-1.91,3.71-7.87,1.55-15.43-1.42-22.91-.16-.41-.67-.68-1-1-.29.44-.8.88-.81,1.34C298.39,514.32,298.43,517.1,298.43,519.88Zm73.73-151.25h-.06c0,3.06,0,6.12,0,9.18a5.74,5.74,0,0,0,.42,1.46,11.4,11.4,0,0,0,1.15-.93c4.25-4.46,4.29-14.69.08-19.4a6.93,6.93,0,0,0-.93-.75c-.23.42-.64.84-.65,1.27C372.13,362.52,372.16,365.57,372.16,368.63ZM338.4,448.11c-1-3-2-6-3-9-.08-.23-.34-.41-.52-.61-.25.29-.68.55-.71.86-.51,4.94-1,9.89-1.4,14.84a1.94,1.94,0,0,0,.82,1.63,1.88,1.88,0,0,0,1.68-.74C336.36,452.91,337.29,450.63,338.4,448.11ZM314.15,495.2l-.93.06.68,2.15a13.46,13.46,0,0,0,1.8-1.55c4.23-5.1,2.27-10.38.31-15.62-.2-.54-.87-.9-1.32-1.35a7.14,7.14,0,0,0-.52,1.81C314.13,485.53,314.15,490.36,314.15,495.2ZM359.86,403c-.6-3-1.16-6-1.82-9-.1-.46-.63-.82-1-1.22a4.8,4.8,0,0,0-.76,1.54c-.25,3.31-.44,6.62-.55,9.94a31,31,0,0,0,.26,3.71,31.07,31.07,0,0,0,3-2.71A7.26,7.26,0,0,0,359.86,403Z" transform="translate(-112.86 -122.69)"/></svg>